<?xml version="1.0" encoding="UTF-8"?><svg id="Artwork" xmlns="http://www.w3.org/2000/svg" viewBox="0 0 519 86"><defs><style>.cls-1{fill:#fff;fill-rule:evenodd;}</style></defs><path class="cls-1" d="M113.2,17.2c2.35-.33,4.6-.49,6.77-.49,2.29,0,4.54.16,6.77.49l14.51,30.12,14.95-30.12c1.82-.33,3.84-.49,6.07-.49s4.37.16,6.42.49l2.99,55.31c-2.23.33-4.34.49-6.33.49s-3.96-.16-5.89-.49l-1.58-39.99-12.84,27.64c-.82.11-1.67.21-2.55.29s-1.76.12-2.64.12c-.76,0-1.52-.03-2.29-.08-.76-.05-1.55-.16-2.38-.33l-11.96-28.21-1.23,40.56c-1.88.33-3.69.49-5.45.49-1.88,0-3.81-.16-5.8-.49l2.46-55.31h0ZM495.9,38.82h-5.28l-.41-1.62,15.18-19.4h1.87v12.26h9.82c.16.81.27,1.54.33,2.19.05.65.08,1.33.08,2.03,0,.76-.03,1.49-.08,2.19-.05.7-.16,1.49-.33,2.35h-9.82v16.48c0,1.68.14,3.03.41,4.06s.66,1.84,1.18,2.44c.51.6,1.15,1,1.91,1.22.76.22,1.65.33,2.68.33.81,0,1.61-.07,2.4-.2.78-.14,1.47-.26,2.07-.37.38,1.03.65,2.1.81,3.21.16,1.11.24,2.1.24,2.96,0,.6-.01,1.1-.04,1.5-.03.41-.07.8-.12,1.18-2.49.6-5.06.89-7.71.89-4.93,0-8.69-1.15-11.28-3.45-2.6-2.3-3.9-6.05-3.9-11.24v-19h-.01ZM467.82,53.76c-3.03-.87-5.4-2.15-7.1-3.86-1.71-1.7-2.56-4.26-2.56-7.67,0-4.11,1.47-7.33,4.42-9.66,2.95-2.33,6.97-3.49,12.06-3.49,2.11,0,4.19.19,6.25.57s4.14.95,6.25,1.7c-.11,1.41-.38,2.87-.81,4.38-.43,1.51-.95,2.84-1.54,3.98-1.3-.54-2.73-1.02-4.3-1.42-1.57-.41-3.22-.61-4.95-.61-1.84,0-3.27.28-4.3.85s-1.54,1.48-1.54,2.72.37,2.03,1.1,2.52,1.77.95,3.13,1.38l4.63,1.38c1.52.43,2.88.96,4.1,1.58s2.26,1.39,3.13,2.31,1.54,2.06,2.03,3.41c.49,1.35.73,3,.73,4.95s-.42,3.87-1.26,5.6c-.84,1.73-2.06,3.23-3.65,4.51-1.6,1.27-3.53,2.27-5.8,3s-4.84,1.1-7.71,1.1c-1.3,0-2.49-.04-3.57-.12-1.08-.08-2.12-.22-3.13-.41-1-.19-1.99-.42-2.96-.69-.97-.27-2.03-.62-3.17-1.06.11-1.46.37-2.94.77-4.42.41-1.49.93-2.94,1.58-4.34,1.79.7,3.48,1.23,5.07,1.58,1.6.35,3.26.53,4.99.53.76,0,1.58-.07,2.48-.2.89-.14,1.72-.38,2.48-.73.76-.35,1.39-.81,1.91-1.38.51-.57.77-1.31.77-2.23,0-1.3-.39-2.23-1.18-2.8-.79-.57-1.88-1.07-3.29-1.5l-5.03-1.46h-.03ZM432.81,73c-3.41,0-6.37-.56-8.89-1.66-2.52-1.11-4.6-2.65-6.25-4.63-1.65-1.98-2.9-4.29-3.73-6.94-.84-2.65-1.26-5.52-1.26-8.6s.42-5.98,1.26-8.69,2.08-5.05,3.73-7.02c1.65-1.98,3.74-3.53,6.25-4.67,2.52-1.14,5.48-1.7,8.89-1.7s6.39.57,8.93,1.7c2.54,1.14,4.65,2.69,6.33,4.67s2.92,4.32,3.73,7.02c.81,2.71,1.22,5.6,1.22,8.69s-.41,5.95-1.22,8.6-2.06,4.97-3.73,6.94c-1.68,1.98-3.79,3.52-6.33,4.63-2.54,1.11-5.52,1.66-8.93,1.66h0ZM432.81,64.23c3.03,0,5.21-1.12,6.53-3.37,1.33-2.25,1.99-5.48,1.99-9.7s-.66-7.46-1.99-9.7c-1.33-2.25-3.5-3.37-6.53-3.37s-5.13,1.12-6.45,3.37c-1.33,2.25-1.99,5.48-1.99,9.7s.66,7.46,1.99,9.7c1.33,2.25,3.48,3.37,6.45,3.37h0ZM348.45,30.05c.76-.16,1.51-.28,2.27-.36.76-.08,1.6-.12,2.52-.12s1.73.04,2.43.12c.7.08,1.43.2,2.19.36.16.27.31.66.45,1.18.13.51.26,1.06.37,1.62.11.57.2,1.12.28,1.66s.15,1,.2,1.38c.43-.81,1-1.62,1.71-2.44.7-.81,1.54-1.54,2.52-2.19.97-.65,2.07-1.18,3.29-1.58,1.22-.41,2.58-.61,4.1-.61,6.55,0,10.74,2.49,12.58,7.47,1.08-2,2.61-3.75,4.59-5.24s4.48-2.23,7.51-2.23c4.76,0,8.27,1.31,10.51,3.94,2.25,2.62,3.37,6.72,3.37,12.3v26.71c-1.95.32-3.87.49-5.76.49s-3.82-.16-5.76-.49v-23.71c0-2.92-.37-5.17-1.1-6.74s-2.2-2.35-4.42-2.35c-.92,0-1.83.14-2.72.41s-1.71.77-2.44,1.5-1.33,1.76-1.79,3.09c-.46,1.32-.69,3.04-.69,5.15v22.65c-1.95.32-3.87.49-5.76.49s-3.82-.16-5.76-.49v-23.71c0-2.92-.36-5.17-1.1-6.74-.73-1.57-2.21-2.35-4.42-2.35-.92,0-1.84.14-2.76.41s-1.75.8-2.48,1.58c-.73.78-1.31,1.88-1.74,3.29s-.65,3.25-.65,5.52v22c-1.95.32-3.87.49-5.76.49s-3.81-.16-5.76-.49V30.05h-.02ZM317.72,30.05c.81-.16,1.58-.28,2.31-.36s1.53-.12,2.4-.12c.81,0,1.61.06,2.39.16.79.11,1.56.24,2.31.41.16.27.31.66.45,1.18.14.51.26,1.06.37,1.62.11.57.2,1.14.28,1.7.08.57.15,1.04.2,1.42,1.19-1.68,2.65-3.18,4.38-4.51,1.73-1.33,3.9-1.99,6.49-1.99.54,0,1.16.03,1.87.08.7.05,1.22.13,1.54.24.11.54.19,1.16.24,1.87.06.7.08,1.43.08,2.19,0,.92-.04,1.92-.12,3-.08,1.08-.23,2.11-.45,3.08-.6-.11-1.26-.16-1.99-.16h-1.34c-.92,0-1.95.1-3.09.28-1.14.19-2.22.69-3.25,1.5s-1.88,2.03-2.56,3.65c-.68,1.62-1.02,3.9-1.02,6.82v19.97c-.97.16-1.95.27-2.92.32s-1.92.08-2.84.08-1.85-.03-2.8-.08c-.95-.05-1.93-.16-2.96-.32V30.05h.03ZM285.96,54.57c.22,3.25,1.35,5.6,3.41,7.06,2.06,1.46,4.76,2.19,8.12,2.19,1.84,0,3.72-.18,5.64-.53s3.75-.85,5.48-1.5c.6,1.08,1.11,2.38,1.54,3.9.43,1.51.68,3.14.73,4.87-4.22,1.62-8.98,2.44-14.29,2.44-3.9,0-7.24-.54-10.03-1.62s-5.06-2.58-6.82-4.51c-1.76-1.92-3.06-4.21-3.9-6.86s-1.26-5.55-1.26-8.69.43-5.98,1.3-8.69c.86-2.71,2.15-5.06,3.86-7.06,1.7-2,3.81-3.59,6.33-4.75,2.52-1.16,5.45-1.75,8.81-1.75,2.92,0,5.52.51,7.79,1.54,2.27,1.03,4.21,2.44,5.8,4.22,1.6,1.78,2.8,3.91,3.61,6.37.81,2.46,1.22,5.1,1.22,7.91,0,1.03-.04,2.04-.12,3.04-.08,1-.18,1.8-.28,2.39h-26.95v.03ZM302.44,46.53c-.11-2.6-.83-4.7-2.15-6.29-1.33-1.6-3.18-2.4-5.56-2.4-2.71,0-4.76.76-6.17,2.27-1.41,1.52-2.25,3.65-2.52,6.41h16.4ZM249.11,38.82h-5.28l-.41-1.62,15.18-19.4h1.87v12.26h9.82c.16.81.27,1.54.32,2.19.05.65.08,1.33.08,2.03,0,.76-.03,1.49-.08,2.19-.05.7-.16,1.49-.32,2.35h-9.82v16.48c0,1.68.14,3.03.41,4.06.27,1.03.66,1.84,1.18,2.44.51.6,1.15,1,1.91,1.22s1.65.33,2.68.33c.81,0,1.61-.07,2.4-.2.78-.14,1.47-.26,2.07-.37.38,1.03.65,2.1.81,3.21.16,1.11.24,2.1.24,2.96,0,.6-.01,1.1-.04,1.5-.03.41-.07.8-.12,1.18-2.49.6-5.06.89-7.71.89-4.92,0-8.69-1.15-11.28-3.45-2.6-2.3-3.9-6.05-3.9-11.24v-19h0ZM218.65,38.82h-5.28l-.41-1.62,15.18-19.4h1.87v12.26h9.82c.16.81.27,1.54.33,2.19.05.65.08,1.33.08,2.03,0,.76-.03,1.49-.08,2.19-.05.7-.16,1.49-.33,2.35h-9.82v16.48c0,1.68.14,3.03.41,4.06s.66,1.84,1.18,2.44c.51.6,1.15,1,1.91,1.22.76.22,1.65.33,2.68.33.81,0,1.61-.07,2.4-.2.78-.14,1.47-.26,2.07-.37.38,1.03.65,2.1.81,3.21s.24,2.1.24,2.96c0,.6,0,1.1-.04,1.5-.03.41-.07.8-.12,1.18-2.49.6-5.06.89-7.71.89-4.93,0-8.69-1.15-11.28-3.45-2.6-2.3-3.9-6.05-3.9-11.24v-19h0ZM199.76,52.78c-.65-.11-1.35-.2-2.11-.28s-1.43-.12-2.03-.12c-2.65,0-4.75.47-6.29,1.42-1.54.95-2.31,2.48-2.31,4.59,0,1.41.3,2.49.89,3.25.6.76,1.31,1.31,2.15,1.66.84.35,1.73.57,2.68.65s1.77.12,2.48.12c.81,0,1.62-.07,2.44-.2.81-.14,1.52-.26,2.11-.37v-10.72h0ZM199.76,44.42c0-1.3-.22-2.35-.65-3.17-.43-.81-1.03-1.45-1.79-1.91s-1.69-.77-2.8-.93-2.34-.24-3.69-.24c-2.92,0-6.03.57-9.34,1.7-.76-1.41-1.33-2.73-1.7-3.98-.38-1.24-.57-2.73-.57-4.47,2.38-.81,4.76-1.41,7.14-1.79s4.6-.57,6.66-.57c5.63,0,10.03,1.35,13.19,4.06,3.17,2.71,4.75,7.03,4.75,12.99v24.35c-1.89.6-4.19,1.16-6.9,1.7-2.71.54-5.76.81-9.17.81-2.76,0-5.29-.24-7.59-.73-2.3-.49-4.28-1.3-5.92-2.44-1.65-1.14-2.92-2.6-3.82-4.38-.89-1.79-1.34-3.98-1.34-6.58s.55-4.78,1.66-6.53c1.11-1.76,2.54-3.17,4.3-4.22,1.76-1.06,3.72-1.81,5.89-2.27,2.16-.46,4.33-.69,6.49-.69,1.57,0,3.3.08,5.2.24v-.97.02Z"/><path class="cls-1" d="M67.71,8.51l.45,9.05c7.33,8.1,10.23,19.58,6.58,30.36-5.45,16.1-23.42,24.56-40.14,18.9-16.72-5.66-25.85-23.3-20.4-39.4,3.66-10.82,12.98-18.19,23.78-20.14L43.81.39C25.62-.1,8.45,11.19,2.31,29.33c-7.55,22.29,4.41,46.48,26.7,54.03,22.29,7.55,46.48-4.41,54.03-26.7,6.13-18.11-.61-37.48-15.31-48.15h-.02Z"/><path class="cls-1" d="M57.26,35.21l-.31-12.65-.25-7.28-.17-6.3s.04-3.04-.07-3.75c-.02-.15-.07-.27-.13-.38,0-.02,0-.03-.02-.04,0-.01-.02-.03-.02-.04-.12-.2-.3-.36-.54-.44s-.49-.06-.71.03h0s-.05.02-.08.04c-.1.05-.21.12-.31.22-.52.5-2.34,2.94-2.34,2.94l-3.96,4.91-4.62,5.63-7.93,9.86s-3.64,4.54-2.83,10.13c.8,5.59,4.96,8.31,8.18,9.4s8.18,1.45,12.21-2.5c4.03-3.95,3.9-9.77,3.9-9.77h0Z"/></svg>